HIERARCHY
ROOT Hips
{
    OFFSET 0.0 0.0 0.0
    CHANNELS 6 Xposition Yposition Zposition Zrotation Xrotation Yrotation
    JOINT LHipJoint
    {
        OFFSET 0.1 0.0 0.0
        CHANNELS 3 Zrotation Xrotation Yrotation
        JOINT LeftHip
        {
            OFFSET 0.08493848145008087 0.0 0.0
            CHANNELS 3 Zrotation Xrotation Yrotation
            JOINT LeftKnee
            {
                OFFSET 0.0 0.0 -0.5302759408950806
                CHANNELS 3 Zrotation Xrotation Yrotation
                JOINT LeftAnkle
                {
                    OFFSET 0.0 0.0 -0.4254474937915802
                    CHANNELS 3 Zrotation Xrotation Yrotation
                    End Site
                    {
                        OFFSET 0.0 -0.1 0.0
                    }
                }
            }
        }
    }
    JOINT lowerback
    {
        OFFSET 0.0 0.0 0.1
        CHANNELS 3 Zrotation Xrotation Yrotation
        JOINT Chest
        {
            OFFSET 0.0 0.0 0.24130259454250336
            CHANNELS 3 Zrotation Xrotation Yrotation
            JOINT Chest2
            {
                OFFSET 0.0 0.0 0.2771230936050415
                CHANNELS 3 Zrotation Xrotation Yrotation
                JOINT LeftCollar
                {
                    OFFSET 0.1 0.0 0.0
                    CHANNELS 3 Zrotation Xrotation Yrotation
                    JOINT LeftShoulder
                    {
                        OFFSET 0.11404712498188019 0.0 0.0
                        CHANNELS 3 Zrotation Xrotation Yrotation
                        JOINT LeftElbow
                        {
                            OFFSET 0.18773379921913147 0.0 0.0
                            CHANNELS 3 Zrotation Xrotation Yrotation
                            JOINT LeftWrist
                            {
                                OFFSET 0.22884762287139893 0.0 0.0
                                CHANNELS 3 Zrotation Xrotation Yrotation
                                End Site
                                {
                                    OFFSET 0.1 0.0 0.0
                                }
                            }
                        }
                    }
                }
                JOINT Neck
                {
                    OFFSET 0.0 0.0 0.1
                    CHANNELS 3 Zrotation Xrotation Yrotation
                    JOINT Head
                    {
                        OFFSET 0.0 0.0 0.12253253906965256
                        CHANNELS 3 Zrotation Xrotation Yrotation
                        End Site
                        {
                            OFFSET 0.0 0.0 0.16058757901191711
                        }
                    }
                }
                JOINT RightCollar
                {
                    OFFSET -0.1 0.0 0.0
                    CHANNELS 3 Zrotation Xrotation Yrotation
                    JOINT RightShoulder
                    {
                        OFFSET -0.11404712498188019 0.0 0.0
                        CHANNELS 3 Zrotation Xrotation Yrotation
                        JOINT RightElbow
                        {
                            OFFSET -0.18773379921913147 0.0 0.0
                            CHANNELS 3 Zrotation Xrotation Yrotation
                            JOINT RightWrist
                            {
                                OFFSET -0.22884762287139893 0.0 0.0
                                CHANNELS 3 Zrotation Xrotation Yrotation
                                End Site
                                {
                                    OFFSET -0.1 0.0 0.0
                                }
                            }
                        }
                    }
                }
            }
        }
    }
    JOINT RHipJoint
    {
        OFFSET -0.1 0.0 0.0
        CHANNELS 3 Zrotation Xrotation Yrotation
        JOINT RightHip
        {
            OFFSET -0.08493848145008087 0.0 0.0
            CHANNELS 3 Zrotation Xrotation Yrotation
            JOINT RightKnee
            {
                OFFSET 0.0 0.0 -0.5302759408950806
                CHANNELS 3 Zrotation Xrotation Yrotation
                JOINT RightAnkle
                {
                    OFFSET 0.0 0.0 -0.4254474937915802
                    CHANNELS 3 Zrotation Xrotation Yrotation
                    End Site
                    {
                        OFFSET 0.0 -0.1 0.0
                    }
                }
            }
        }
    }
}
MOTION
Frames: 4
Frame Time: 0.03333333333333333
1.6269072148134e-05 0.9423847794532776 -1.851328124757856e-05 -117.45046596313071 -67.87251631883137 -115.68953849236695 -3.1805546814635176e-15 0.0 0.0 -0.18312541644947186 -6.155919970301235 -17.017212491041164 -0.6191006789816936 2.275881475875981 5.20431840741012 -7.951386703658794e-16 1.1034765745125397e-32 -1.5902773407317588e-15 -3.1805546814635176e-15 0.0 0.0 -0.07024087188345338 -2.1505003451819005 1.3044726041573664 -2.8672497692931755 1.6246349152769412e-06 -5.7015768005524665e-08 4.770832022195275e-15 3.975693351829395e-16 -1.5902773407317584e-15 -71.52030799599672 -12.375892781364826 47.59876700909085 -125.17750379086085 -3.2460054946245396e-06 -1.749513163237547e-06 -8.827812596100317e-32 6.361109362927035e-15 1.5902773407317588e-15 4.770832022195275e-15 3.975693351829395e-16 -1.5902773407317584e-15 15.28990534025122 0.22980916450775185 1.8424481454403745 4.770832022195275e-15 3.975693351829395e-16 -1.5902773407317584e-15 -21.17474276323952 -37.56471002849695 -53.88439601657604 156.30029134243662 1.4211802971291124e-06 3.183623156035573e-07 2.3854160110976376e-15 -3.310429723537619e-32 -1.5902773407317584e-15 -3.1805546814635176e-15 0.0 0.0 -0.20504211286872354 -5.708723365474425 9.008194215574653 -0.643920213278603 -3.3210806748487682 -7.693567115665206 1.5902773407317584e-15 0.0 0.0
1.9699415133800358e-05 0.9423834085464478 -1.8382881535217166e-05 -117.06735471701808 -67.96127229449324 -115.25462069376243 1.5902773407317584e-15 0.0 0.0 -0.12823361643332257 -6.443576551666749 -16.90118990860515 -0.8455288585909801 3.0091218868654845 5.2136231572253395 -1.5902773407317582e-15 -2.2069531490250793e-32 1.5902773407317582e-15 1.5902773407317584e-15 0.0 0.0 -0.04677351938656474 -2.084689672311913 1.1718195910493272 -3.2552331480386036 1.3417431234542196e-06 -1.4237590709084375e-06 3.1805546814635164e-15 6.361109362927033e-15 -1.7655625192200634e-31 -70.8382017176633 -13.91253437215417 48.32265504262425 -124.0796385612044 3.9092802889029374e-07 4.742413294243473e-06 0.0 0.0 0.0 3.1805546814635164e-15 6.361109362927033e-15 -1.7655625192200634e-31 17.111196560258648 0.5190835524022158 1.532145949179704 3.1805546814635164e-15 6.361109362927033e-15 -1.7655625192200634e-31 -16.878135238686127 -35.933819644828226 -50.15528858218632 155.97299459870794 -5.21975276627853e-07 3.6540381805353434e-07 3.776908684237925e-15 0.0 0.0 1.5902773407317584e-15 0.0 0.0 -0.1487456824764769 -5.8897835219983055 8.581306452996497 -0.5004715968224935 -2.851912348416147 -7.938025403405763 1.590277340731758e-15 -6.162324695335562e-15 -1.590277340731758e-15
1.9207564037060365e-05 0.9423863887786865 -1.8466889741830528e-05 -116.57121528335848 -66.99485939803684 -115.02610853510787 0.0 -3.9756933518293955e-16 0.0 -0.04986851256310445 -6.114177107503141 -16.79506586226922 -0.6304038420757526 2.1640850771583104 5.153251931212878 0.0 0.0 7.951386703658792e-16 0.0 -3.9756933518293955e-16 0.0 -0.016861407458039476 -1.5257351730516915 1.6826214678043807 -2.6838525303866754 2.4561655932136754e-06 7.63821547724703e-07 8.827812596100317e-32 -6.361109362927033e-15 1.5902773407317582e-15 -71.45176772464865 -14.092011130584071 47.452459042025964 -123.86078239394917 2.688205373646592e-06 6.42727843345395e-06 0.0 0.0 1.5902773407317584e-15 8.827812596100317e-32 -6.361109362927033e-15 1.5902773407317582e-15 17.114051934315455 0.2532766042233332 1.8038668859352691 8.827812596100317e-32 -6.361109362927033e-15 1.5902773407317582e-15 -21.612674825285126 -40.28885339093081 -52.58427282739455 155.65206836102558 -9.292930210187285e-06 -2.560268640892528e-06 1.7890620083232284e-15 0.0 0.0 0.0 -3.9756933518293955e-16 0.0 -0.08511051265545617 -6.062441670409762 9.261004504077123 -0.690161053439361 -3.9188502932000415 -8.402245833707422 0.0 -6.3611093629270335e-15 0.0
2.109327760990709e-05 0.9423861503601074 -1.8288425053469837e-05 -115.5043015881057 -66.30271109835331 -113.94638525919825 1.590277340731758e-15 0.0 0.0 -0.054181179195899556 -4.831396433717119 -17.22027373164568 -0.21748139706398384 0.7353875699845599 5.440960060872558 0.0 -6.5598940305185035e-15 0.0 1.590277340731758e-15 0.0 0.0 -0.026849758636587076 -1.874554706191252 1.5322410452765074 -3.1113659610746565 -6.085117798799374e-07 3.0658598333840526e-07 0.0 -5.9635400277440935e-15 0.0 -65.0692228720774 -12.900920170690059 44.931742728930594 -127.47925698484836 -5.81790585095969e-06 4.2784745378624854e-06 0.0 -6.3611093629270335e-15 0.0 0.0 -5.9635400277440935e-15 0.0 17.51243131328776 1.4180430404826776 1.8625840285880135 0.0 -5.9635400277440935e-15 0.0 -19.10386314320188 -42.90880289457481 -51.83492680742737 153.1272889004473 -1.66860869174822e-06 6.200936615838742e-07 -1.6896696745274934e-15 -3.1805546814635168e-15 -4.689775441678294e-32 1.590277340731758e-15 0.0 0.0 -0.09597611925495057 -5.559985924469269 9.270711630590771 -0.8949407046048894 -4.975403039640385 -9.493114080544332 -1.5902773407317588e-15 -6.758678698109974e-15 -9.379550883356588e-32
